<svg width="83" height="85" viewBox="0 0 83 85" fill="none" xmlns="http://www.w3.org/2000/svg">
<path d="M72.5431 24.7918C71.9485 23.7315 71.097 22.8479 70.0717 22.2272C69.0464 21.6065 67.8823 21.2698 66.6929 21.2501H22.644L20.6481 13.246C20.4464 12.4733 19.9965 11.7937 19.3716 11.3178C18.7467 10.8419 17.9837 10.5977 17.2068 10.6251H10.3241C9.41143 10.6251 8.53612 10.9983 7.89075 11.6625C7.24538 12.3266 6.88281 13.2275 6.88281 14.1668C6.88281 15.1061 7.24538 16.0069 7.89075 16.6711C8.53612 17.3353 9.41143 17.7085 10.3241 17.7085H14.5914L24.0894 54.046C24.2911 54.8186 24.741 55.4982 25.3659 55.9741C25.9907 56.45 26.7538 56.6942 27.5307 56.6668H58.5026C59.1381 56.6648 59.7606 56.4818 60.3012 56.1379C60.8418 55.7941 61.2794 55.3029 61.5653 54.7189L72.8528 31.4855C73.3421 30.4302 73.5698 29.2666 73.5158 28.0986C73.4617 26.9306 73.1276 25.7945 72.5431 24.7918ZM56.3689 49.5835H30.1461L24.5368 28.3335H66.6929L56.3689 49.5835Z" fill="black"/>
<path d="M25.8104 74.3755C28.6613 74.3755 30.9724 71.997 30.9724 69.063C30.9724 66.129 28.6613 63.7505 25.8104 63.7505C22.9595 63.7505 20.6484 66.129 20.6484 69.063C20.6484 71.997 22.9595 74.3755 25.8104 74.3755Z" fill="black"/>
<path d="M60.2225 74.3755C63.0734 74.3755 65.3845 71.997 65.3845 69.063C65.3845 66.129 63.0734 63.7505 60.2225 63.7505C57.3716 63.7505 55.0605 66.129 55.0605 69.063C55.0605 71.997 57.3716 74.3755 60.2225 74.3755Z" fill="black"/>
</svg>
