<svg id="visual" viewBox="0 0 960 540" width="960" height="540" xmlns="http://www.w3.org/2000/svg" xmlns:xlink="http://www.w3.org/1999/xlink" version="1.1"><rect x="0" y="0" width="960" height="540" fill="#f7cf9a"></rect><defs><linearGradient id="grad1_0" x1="43.8%" y1="0%" x2="100%" y2="100%"><stop offset="14.444444444444446%" stop-color="#936e00" stop-opacity="1"></stop><stop offset="85.55555555555554%" stop-color="#936e00" stop-opacity="1"></stop></linearGradient></defs><defs><linearGradient id="grad1_1" x1="43.8%" y1="0%" x2="100%" y2="100%"><stop offset="14.444444444444446%" stop-color="#936e00" stop-opacity="1"></stop><stop offset="85.55555555555554%" stop-color="#b68d3d" stop-opacity="1"></stop></linearGradient></defs><defs><linearGradient id="grad1_2" x1="43.8%" y1="0%" x2="100%" y2="100%"><stop offset="14.444444444444446%" stop-color="#d7ad6b" stop-opacity="1"></stop><stop offset="85.55555555555554%" stop-color="#b68d3d" stop-opacity="1"></stop></linearGradient></defs><defs><linearGradient id="grad1_3" x1="43.8%" y1="0%" x2="100%" y2="100%"><stop offset="14.444444444444446%" stop-color="#d7ad6b" stop-opacity="1"></stop><stop offset="85.55555555555554%" stop-color="#f7cf9a" stop-opacity="1"></stop></linearGradient></defs><defs><linearGradient id="grad2_0" x1="0%" y1="0%" x2="56.3%" y2="100%"><stop offset="14.444444444444446%" stop-color="#936e00" stop-opacity="1"></stop><stop offset="85.55555555555554%" stop-color="#936e00" stop-opacity="1"></stop></linearGradient></defs><defs><linearGradient id="grad2_1" x1="0%" y1="0%" x2="56.3%" y2="100%"><stop offset="14.444444444444446%" stop-color="#b68d3d" stop-opacity="1"></stop><stop offset="85.55555555555554%" stop-color="#936e00" stop-opacity="1"></stop></linearGradient></defs><defs><linearGradient id="grad2_2" x1="0%" y1="0%" x2="56.3%" y2="100%"><stop offset="14.444444444444446%" stop-color="#b68d3d" stop-opacity="1"></stop><stop offset="85.55555555555554%" stop-color="#d7ad6b" stop-opacity="1"></stop></linearGradient></defs><defs><linearGradient id="grad2_3" x1="0%" y1="0%" x2="56.3%" y2="100%"><stop offset="14.444444444444446%" stop-color="#f7cf9a" stop-opacity="1"></stop><stop offset="85.55555555555554%" stop-color="#d7ad6b" stop-opacity="1"></stop></linearGradient></defs><g transform="translate(960, 0)"><path d="M0 270C-15.1 251.3 -30.2 232.6 -44.7 224.6C-59.1 216.6 -73 219.4 -93 224.5C-113 229.6 -139.1 236.9 -150 224.5C-160.9 212.1 -156.5 179.9 -161.2 161.2C-166 142.6 -179.9 137.5 -192.9 128.9C-205.9 120.3 -218 108.2 -229.1 94.9C-240.2 81.6 -250.3 67.1 -257 51.1C-263.6 35.1 -266.8 17.5 -270 0L0 0Z" fill="#e7be82"></path><path d="M0 202.5C-11.3 188.5 -22.7 174.4 -33.5 168.4C-44.4 162.5 -54.7 164.6 -69.7 168.4C-84.7 172.2 -104.4 177.7 -112.5 168.4C-120.7 159.1 -117.3 134.9 -120.9 120.9C-124.5 106.9 -134.9 103.1 -144.7 96.7C-154.4 90.2 -163.5 81.1 -171.8 71.2C-180.2 61.2 -187.7 50.3 -192.7 38.3C-197.7 26.3 -200.1 13.2 -202.5 0L0 0Z" fill="#c69d54"></path><path d="M0 135C-7.6 125.6 -15.1 116.3 -22.3 112.3C-29.6 108.3 -36.5 109.7 -46.5 112.3C-56.5 114.8 -69.6 118.5 -75 112.2C-80.4 106 -78.2 89.9 -80.6 80.6C-83 71.3 -89.9 68.7 -96.5 64.4C-103 60.1 -109 54.1 -114.6 47.5C-120.1 40.8 -125.2 33.6 -128.5 25.6C-131.8 17.5 -133.4 8.8 -135 0L0 0Z" fill="#a47d24"></path><path d="M0 67.5C-3.8 62.8 -7.6 58.1 -11.2 56.1C-14.8 54.2 -18.2 54.9 -23.2 56.1C-28.2 57.4 -34.8 59.2 -37.5 56.1C-40.2 53 -39.1 45 -40.3 40.3C-41.5 35.6 -45 34.4 -48.2 32.2C-51.5 30.1 -54.5 27 -57.3 23.7C-60.1 20.4 -62.6 16.8 -64.2 12.8C-65.9 8.8 -66.7 4.4 -67.5 0L0 0Z" fill="#936e00"></path></g><g transform="translate(0, 540)"><path d="M0 -270C15.5 -256.8 30.9 -243.6 47.6 -239.3C64.3 -235.1 82.1 -239.8 98.3 -237.4C114.6 -235.1 129.3 -225.6 145.6 -217.8C161.8 -210.1 179.8 -204.2 190.9 -190.9C202.1 -177.7 206.5 -157.2 207 -138.3C207.6 -119.5 204.3 -102.4 215.3 -89.2C226.2 -75.9 251.4 -66.5 262.9 -52.3C274.3 -38.1 272.2 -19 270 0L0 0Z" fill="#e7be82"></path><path d="M0 -202.5C11.6 -192.6 23.2 -182.7 35.7 -179.5C48.2 -176.3 61.6 -179.9 73.8 -178.1C86 -176.3 97 -169.2 109.2 -163.4C121.4 -157.6 134.8 -153.1 143.2 -143.2C151.6 -133.3 154.9 -117.9 155.3 -103.8C155.7 -89.6 153.2 -76.8 161.4 -66.9C169.7 -56.9 188.5 -49.9 197.1 -39.2C205.8 -28.5 204.1 -14.3 202.5 0L0 0Z" fill="#c69d54"></path><path d="M0 -135C7.7 -128.4 15.5 -121.8 23.8 -119.7C32.1 -117.5 41 -119.9 49.2 -118.7C57.3 -117.5 64.6 -112.8 72.8 -108.9C80.9 -105.1 89.9 -102.1 95.5 -95.5C101 -88.8 103.2 -78.6 103.5 -69.2C103.8 -59.8 102.2 -51.2 107.6 -44.6C113.1 -38 125.7 -33.3 131.4 -26.1C137.2 -19 136.1 -9.5 135 0L0 0Z" fill="#a47d24"></path><path d="M0 -67.5C3.9 -64.2 7.7 -60.9 11.9 -59.8C16.1 -58.8 20.5 -60 24.6 -59.4C28.7 -58.8 32.3 -56.4 36.4 -54.5C40.5 -52.5 44.9 -51 47.7 -47.7C50.5 -44.4 51.6 -39.3 51.8 -34.6C51.9 -29.9 51.1 -25.6 53.8 -22.3C56.6 -19 62.8 -16.6 65.7 -13.1C68.6 -9.5 68 -4.8 67.5 0L0 0Z" fill="#936e00"></path></g></svg>